<svg
  width="54"
  height="33"
  viewBox="0 0 54 33"
  fill="none"
  xmlns="http://www.w3.org/2000/svg"
>
  <path d="M2 32V6H40.6392" stroke="black" stroke-width="3" />
  <path
    d="M6.01758 26V13.915H8.53711V15.7754C9.13281 15.0137 9.69922 14.457 10.2363 14.1055C10.7832 13.7539 11.4082 13.5781 12.1113 13.5781C13.0293 13.5781 13.7471 13.7783 14.2646 14.1787C14.792 14.5791 15.2363 15.2188 15.5977 16.0977C16.2324 15.2188 16.8428 14.5791 17.4287 14.1787C18.0244 13.7783 18.7129 13.5781 19.4941 13.5781C20.4512 13.5781 21.2764 13.9395 21.9697 14.6621C22.6631 15.375 23.0098 16.2246 23.0098 17.2109V26H20.4756V17.8701C20.4756 16.5322 19.8164 15.8633 18.498 15.8633C17.7461 15.8633 17.1064 16.2051 16.5791 16.8887C16.0615 17.5723 15.8027 18.417 15.8027 19.4229V26H13.2539V18.207C13.2539 16.625 12.6045 15.834 11.3057 15.834C10.5342 15.834 9.87988 16.1562 9.34277 16.8008C8.80566 17.4453 8.53711 18.2412 8.53711 19.1885V26H6.01758Z"
    fill="black"
  />
  <path
    d="M34.4326 13.915H36.9814V26H34.4326V23.5977C33.1924 25.4238 31.6543 26.3369 29.8184 26.3369C28.2266 26.3369 26.8643 25.7119 25.7314 24.4619C24.6084 23.2119 24.0469 21.6934 24.0469 19.9062C24.0469 18.2168 24.6133 16.7422 25.7461 15.4824C26.8887 14.2129 28.2266 13.5781 29.7598 13.5781C30.707 13.5781 31.6055 13.8369 32.4551 14.3545C33.3047 14.8721 33.9639 15.5459 34.4326 16.376V13.915ZM34.7695 19.9941C34.7695 18.8906 34.374 17.9482 33.583 17.167C32.792 16.376 31.8447 15.9805 30.7412 15.9805C29.667 15.9805 28.7295 16.3711 27.9287 17.1523C27.1279 17.9336 26.7275 18.8516 26.7275 19.9062C26.7275 21.0488 27.1182 22.0205 27.8994 22.8213C28.6807 23.6221 29.6279 24.0225 30.7412 24.0225C31.8447 24.0225 32.792 23.627 33.583 22.8359C34.374 22.0352 34.7695 21.0879 34.7695 19.9941Z"
    fill="black"
  />
  <path
    d="M38.1055 6.98633H40.6396V19.2178L45.6494 13.915H48.9453L43.7158 19.4961L49.0039 26H45.8545L40.6396 19.6133V26H38.1055V6.98633Z"
    fill="black"
  />
  <path d="M7.35645 30H52.0001V6H44.6096" stroke="black" stroke-width="3" />
</svg>